<svg width="2500" height="534" viewBox="0 0 2500 534" fill="none" xmlns="http://www.w3.org/2000/svg">
<path fill-rule="evenodd" clip-rule="evenodd" d="M61.0914 61.0286H366.549V472.971H61.0914V61.0286Z" fill="black"/>
<path d="M0 45.7714H61.0914V488.229H0V45.7714Z" fill="#04FF8E"/>
<path d="M366.549 167.829H427.64V488.229H366.549V167.829Z" fill="#8E2EFF"/>
<path d="M0 472.971H427.64V534H0V472.971Z" fill="#00C5FF"/>
<path d="M0 0H244.366V61.0286H0V0Z" fill="#FFF152"/>
<path d="M366.549 122.057V61.0286H305.457V0H244.366V183.086H427.64V122.057" fill="#FF5B5B"/>
<path d="M366.549 244.114V183.086H427.64" fill="#551C99"/>
<path fill-rule="evenodd" clip-rule="evenodd" d="M244.366 0V61.0286H183.274" fill="#999131"/>
<path d="M588.575 92.9091L645.848 194.5H648.575L706.53 92.9091H812.212L707.893 267.455L816.303 442H707.893L648.575 338.364H645.848L586.53 442H478.803L585.848 267.455L482.212 92.9091H588.575ZM947.851 92.9091V442H853.078V92.9091H947.851ZM1083.45 442H981.175L1096.4 92.9091H1225.95L1341.17 442H1238.9L1162.54 189.045H1159.81L1083.45 442ZM1064.36 304.273H1256.63V375.182H1064.36V304.273ZM1696.57 267.455C1696.57 306.318 1689.02 339.102 1673.9 365.807C1658.79 392.398 1638.39 412.568 1612.71 426.318C1587.03 439.955 1558.39 446.773 1526.8 446.773C1494.98 446.773 1466.23 439.898 1440.55 426.148C1414.98 412.284 1394.64 392.057 1379.53 365.466C1364.53 338.761 1357.03 306.091 1357.03 267.455C1357.03 228.591 1364.53 195.864 1379.53 169.273C1394.64 142.568 1414.98 122.398 1440.55 108.761C1466.23 95.0114 1494.98 88.1364 1526.8 88.1364C1558.39 88.1364 1587.03 95.0114 1612.71 108.761C1638.39 122.398 1658.79 142.568 1673.9 169.273C1689.02 195.864 1696.57 228.591 1696.57 267.455ZM1599.07 267.455C1599.07 246.545 1596.29 228.932 1590.72 214.614C1585.27 200.182 1577.14 189.273 1566.35 181.886C1555.66 174.386 1542.48 170.636 1526.8 170.636C1511.12 170.636 1497.88 174.386 1487.08 181.886C1476.4 189.273 1468.28 200.182 1462.71 214.614C1457.25 228.932 1454.53 246.545 1454.53 267.455C1454.53 288.364 1457.25 306.034 1462.71 320.466C1468.28 334.784 1476.4 345.693 1487.08 353.193C1497.88 360.58 1511.12 364.273 1526.8 364.273C1542.48 364.273 1555.66 360.58 1566.35 353.193C1577.14 345.693 1585.27 334.784 1590.72 320.466C1596.29 306.034 1599.07 288.364 1599.07 267.455ZM1740.42 442V92.9091H1835.19V229.273H1960.65V92.9091H2055.42V442H1960.65V305.636H1835.19V442H1740.42ZM2100.42 442V92.9091H2352.01V169.273H2195.19V229.273H2339.06V305.636H2195.19V365.636H2351.33V442H2100.42Z" fill="white"/>
</svg>
